<svg xmlns="http://www.w3.org/2000/svg" width="363" height="249" viewBox="0 0 363 249" fill="none">
  <g filter="url(#filter0_dddddd_12_3575)">
    <path d="M94.2498 2.00335C94.8674 2 95.4791 2 96.0982 2H265.949C266.556 2 267.173 1.99983 267.779 2.00318C268.2 2.00578 268.628 2.01284 269.052 2.01981C269.147 2.02138 269.242 2.02294 269.336 2.02445C270.468 2.03689 271.597 2.13581 272.713 2.32033C273.834 2.50942 274.919 2.86329 275.935 3.37025C277.965 4.40464 279.618 6.04433 280.66 8.05869C281.169 9.0623 281.522 10.1369 281.705 11.2456C281.894 12.3538 281.998 13.4743 282.019 14.598C282.026 15.1115 282.026 15.6266 282.026 16.1402C282.039 16.7469 282.039 17.355 282.039 17.9684V53.0134C282.039 53.6316 282.039 54.2367 282.026 54.845C282.026 55.3649 282.026 55.8686 282.019 56.3887C281.998 57.5123 281.894 58.6328 281.705 59.7409C281.522 60.8503 281.17 61.9256 280.66 62.9297C280.142 63.9289 279.469 64.8412 278.665 65.6328C277.867 66.4313 276.945 67.0977 275.935 67.6066C274.919 68.1149 273.834 68.4709 272.713 68.6628C271.596 68.8459 270.468 68.9449 269.336 68.9589C268.822 68.9703 268.294 68.9768 267.779 68.9768C267.173 68.9802 266.556 68.9802 265.949 68.9802H96.0982C95.4791 68.9802 94.8674 68.9802 94.2499 68.9768C93.7329 68.9768 93.22 68.9703 92.6983 68.9589C91.5647 68.9441 90.4337 68.8451 89.315 68.6628C88.1978 68.4722 87.1159 68.1161 86.1055 67.6066C85.0939 67.098 84.1712 66.4316 83.3727 65.6328C82.5668 64.8442 81.895 63.9314 81.3835 62.9297C80.8698 61.9263 80.5139 60.851 80.3282 59.7409C80.1403 58.633 80.0391 57.5123 80.0257 56.3889C80.0149 56.0332 80.0107 55.6852 80.0065 55.3345C80.0046 55.1722 80.0026 55.0094 80 54.845V16.1402C80.0026 15.9759 80.0046 15.8114 80.0066 15.6469C80.0108 15.2972 80.015 14.9473 80.0257 14.5981C80.0391 13.4746 80.1402 12.3538 80.3282 11.2458C80.5144 10.1363 80.8703 9.06151 81.3835 8.05852C81.8952 7.05364 82.5669 6.1371 83.3727 5.34415C84.1743 4.54891 85.0964 3.88294 86.1055 3.37042C87.1159 2.86221 88.198 2.50825 89.315 2.3205C90.4335 2.13676 91.5646 2.03784 92.6983 2.02462C92.8052 2.02294 92.9117 2.02119 93.018 2.01945C93.4304 2.0127 93.8388 2.00601 94.2498 2.00335Z" fill="black"/>
  </g>
  <path d="M94.2577 67.5152C93.7433 67.5152 93.2413 67.5086 92.7309 67.4972C91.6736 67.4836 90.6188 67.3924 89.5752 67.2243C88.602 67.058 87.6592 66.7487 86.778 66.3067C85.9049 65.8683 85.1085 65.2935 84.4193 64.6044C83.7202 63.9233 83.1381 63.1334 82.6962 62.2659C82.2494 61.3928 81.9402 60.4569 81.7794 59.4909C81.6058 58.4529 81.5118 57.4033 81.4985 56.3512C81.4876 55.9981 81.4736 54.8224 81.4736 54.8224V16.1402C81.4736 16.1402 81.4885 14.9824 81.4985 14.6422C81.5113 13.5918 81.6047 12.5439 81.7779 11.5075C81.939 10.5388 82.2485 9.60029 82.6955 8.72432C83.1358 7.85743 83.7145 7.0669 84.4094 6.38337C85.1035 5.69335 85.9025 5.1156 86.7772 4.67119C87.6564 4.23062 88.5974 3.92361 89.5686 3.76043C90.6157 3.59066 91.6742 3.49892 92.7351 3.48597L94.2586 3.46521H267.771L269.313 3.48648C270.364 3.49886 271.413 3.58988 272.451 3.75875C273.432 3.92402 274.382 4.23323 275.272 4.67621C277.024 5.5718 278.45 6.9887 279.349 8.72834C279.789 9.5983 280.094 10.5293 280.253 11.4896C280.428 12.5344 280.526 13.5906 280.546 14.6496C280.551 15.1238 280.551 15.6332 280.551 16.1402C280.565 16.7681 280.565 17.3658 280.565 17.9684V53.0134C280.565 53.6218 280.565 54.2154 280.551 54.8139C280.551 55.3584 280.551 55.8573 280.544 56.3707C280.525 57.4108 280.428 58.4482 280.256 59.4744C280.098 60.4473 279.791 61.3905 279.344 62.2708C278.899 63.1288 278.32 63.9119 277.629 64.5911C276.94 65.284 276.142 65.8622 275.267 66.3033C274.38 66.7487 273.431 67.0591 272.451 67.224C271.407 67.393 270.352 67.4843 269.295 67.4971C268.79 67.5088 268.285 67.5148 267.779 67.515L265.949 67.5183L94.2577 67.5152Z" fill="black"/>
  <path d="M121.82 35.994C121.838 34.5964 122.212 33.2261 122.908 32.0105C123.603 30.7949 124.598 29.7735 125.798 29.0415C125.036 27.9612 124.029 27.0721 122.86 26.4449C121.69 25.8177 120.389 25.4697 119.06 25.4284C116.224 25.1332 113.476 27.111 112.031 27.111C110.558 27.111 108.334 25.4577 105.939 25.5066C104.389 25.5562 102.879 26.003 101.556 26.8035C100.232 27.604 99.1404 28.7309 98.3865 30.0743C95.1212 35.6814 97.5569 43.9216 100.685 48.4538C102.25 50.6732 104.079 53.1522 106.472 53.0643C108.814 52.968 109.688 51.5832 112.515 51.5832C115.316 51.5832 116.137 53.0643 118.578 53.0083C121.091 52.968 122.675 50.7792 124.185 48.5389C125.309 46.9576 126.174 45.2099 126.748 43.3605C125.288 42.7481 124.042 41.723 123.166 40.413C122.289 39.103 121.821 37.5662 121.82 35.994ZM117.208 22.4476C118.578 20.8163 119.253 18.7196 119.089 16.6026C116.996 16.8207 115.062 17.8129 113.674 19.3816C112.995 20.148 112.475 21.0395 112.143 22.0054C111.812 22.9712 111.676 23.9923 111.743 25.0103C112.79 25.021 113.826 24.7959 114.772 24.352C115.719 23.9081 116.551 23.257 117.208 22.4476ZM151.423 47.446H143.431L141.512 53.0663H138.126L145.696 32.2723H149.213L156.783 53.0663H153.34L151.423 47.446ZM144.258 44.8523H150.593L147.47 35.731H147.383L144.258 44.8523ZM173.131 45.487C173.131 50.198 170.588 53.2248 166.752 53.2248C165.78 53.2753 164.813 53.0533 163.962 52.5842C163.112 52.1151 162.412 51.4179 161.942 50.5724H161.869V58.0816H158.732V37.9058H161.769V40.4275H161.827C162.318 39.5861 163.03 38.8925 163.887 38.4205C164.744 37.9486 165.714 37.7159 166.694 37.7472C170.573 37.7472 173.131 40.7888 173.131 45.4868V45.487ZM169.906 45.487C169.906 42.4176 168.306 40.3997 165.866 40.3997C163.469 40.3997 161.856 42.46 161.856 45.4868C161.856 48.5416 163.469 50.5873 165.866 50.5873C168.306 50.5873 169.906 48.5841 169.906 45.4868V45.487ZM189.955 45.487C189.955 50.198 187.413 53.2248 183.576 53.2248C182.604 53.2753 181.637 53.0532 180.787 52.5841C179.936 52.115 179.236 51.4179 178.766 50.5724H178.694V58.0816H175.556V37.9058H178.593V40.4275H178.651C179.142 39.5861 179.854 38.8925 180.711 38.4205C181.568 37.9486 182.538 37.7159 183.518 37.7472C187.398 37.7472 189.955 40.7888 189.955 45.4868V45.487ZM186.73 45.487C186.73 42.4176 185.131 40.3997 182.691 40.3997C180.293 40.3997 178.681 42.46 178.681 45.4868C178.681 48.5416 180.293 50.5873 182.691 50.5873C185.131 50.5873 186.73 48.5841 186.73 45.4868V45.487ZM201.075 47.2727C201.307 49.3346 203.327 50.6886 206.087 50.6886C208.732 50.6886 210.635 49.3346 210.635 47.4753C210.635 45.8612 209.487 44.8949 206.77 44.2326L204.052 43.5834C200.203 42.6611 198.415 40.8754 198.415 37.9776C198.415 34.3899 201.568 31.9257 206.044 31.9257C210.475 31.9257 213.512 34.3899 213.614 37.9776H210.447C210.257 35.9026 208.527 34.6499 206 34.6499C203.472 34.6499 201.743 35.9173 201.743 37.7618C201.743 39.232 202.847 40.0971 205.55 40.7592L207.86 41.3218C212.161 42.3307 213.949 44.0445 213.949 47.086C213.949 50.9763 210.824 53.4129 205.855 53.4129C201.205 53.4129 198.066 51.0334 197.863 47.2725L201.075 47.2727ZM220.72 34.3182V37.9058H223.627V40.3702H220.72V48.728C220.72 50.0264 221.302 50.6314 222.58 50.6314C222.925 50.6254 223.27 50.6014 223.612 50.5594V53.0092C223.038 53.1156 222.454 53.1637 221.87 53.1528C218.775 53.1528 217.568 52.0001 217.568 49.0599V40.3702H215.345V37.9058H217.568V34.3182H220.72ZM225.311 45.487C225.311 40.7168 228.143 37.7194 232.561 37.7194C236.993 37.7194 239.812 40.7168 239.812 45.487C239.812 50.27 237.007 53.2543 232.56 53.2543C228.115 53.2543 225.311 50.27 225.311 45.487ZM236.615 45.487C236.615 42.2148 235.103 40.2834 232.56 40.2834C230.018 40.2834 228.508 42.2294 228.508 45.487C228.508 48.7722 230.018 50.6886 232.56 50.6886C235.103 50.6886 236.615 48.7722 236.615 45.487ZM242.399 37.9058H245.391V40.4862H245.464C245.667 39.6803 246.143 38.9681 246.812 38.4693C247.482 37.9705 248.304 37.7155 249.141 37.7472C249.503 37.746 249.863 37.7849 250.216 37.8633V40.7741C249.76 40.6357 249.283 40.5722 248.806 40.586C248.35 40.5677 247.896 40.6474 247.474 40.8197C247.052 40.9919 246.673 41.2527 246.362 41.5841C246.052 41.9155 245.817 42.3096 245.675 42.7394C245.532 43.1692 245.485 43.6245 245.537 44.074V53.0663H242.399V37.9058ZM264.683 48.6134C264.26 51.3656 261.558 53.2543 258.101 53.2543C253.654 53.2543 250.894 50.2995 250.894 45.5588C250.894 40.8035 253.669 37.7194 257.969 37.7194C262.198 37.7194 264.857 40.6008 264.857 45.1974V46.2636H254.061V46.4516C254.011 47.0096 254.082 47.5717 254.268 48.1005C254.454 48.6294 254.751 49.113 255.14 49.5192C255.529 49.9253 256 50.2448 256.523 50.4563C257.046 50.6678 257.609 50.7665 258.173 50.7459C258.914 50.8148 259.659 50.6445 260.295 50.2603C260.931 49.8761 261.425 49.2985 261.703 48.6134H264.683ZM254.076 44.0888H261.718C261.746 43.5871 261.669 43.085 261.493 42.6141C261.316 42.1432 261.043 41.7137 260.691 41.3523C260.339 40.991 259.915 40.7058 259.447 40.5145C258.978 40.3233 258.475 40.2301 257.969 40.2409C257.458 40.2379 256.951 40.3353 256.478 40.5274C256.005 40.7196 255.576 41.0027 255.214 41.3604C254.852 41.7182 254.565 42.1434 254.37 42.6117C254.174 43.08 254.074 43.582 254.076 44.0888ZM143.865 16.6205C144.523 16.5737 145.183 16.6723 145.798 16.9091C146.413 17.1459 146.967 17.5151 147.42 17.9901C147.874 18.465 148.215 19.0339 148.42 19.6556C148.625 20.2773 148.689 20.9364 148.606 21.5853C148.606 24.7772 146.866 26.6121 143.865 26.6121H140.226V16.6204L143.865 16.6205ZM141.791 25.199H143.69C144.161 25.2268 144.631 25.1504 145.067 24.9752C145.504 24.8 145.896 24.5305 146.214 24.1863C146.532 23.8421 146.769 23.4318 146.907 22.9854C147.045 22.5389 147.081 22.0675 147.013 21.6055C147.076 21.1453 147.037 20.6769 146.896 20.2337C146.756 19.7905 146.519 19.3836 146.201 19.0421C145.884 18.7006 145.494 18.433 145.06 18.2585C144.626 18.0839 144.158 18.0067 143.69 18.0325H141.791V25.199ZM150.373 22.8386C150.325 22.3431 150.382 21.8432 150.541 21.3708C150.699 20.8985 150.956 20.4642 151.293 20.0959C151.631 19.7275 152.042 19.4332 152.501 19.2318C152.96 19.0304 153.456 18.9263 153.958 18.9263C154.46 18.9263 154.957 19.0304 155.416 19.2318C155.875 19.4332 156.286 19.7275 156.624 20.0959C156.961 20.4642 157.217 20.8985 157.376 21.3708C157.534 21.8432 157.591 22.3431 157.544 22.8386C157.593 23.3347 157.536 23.8355 157.378 24.3087C157.22 24.7819 156.964 25.2171 156.627 25.5862C156.289 25.9554 155.877 26.2505 155.418 26.4524C154.958 26.6543 154.461 26.7586 153.958 26.7586C153.456 26.7586 152.959 26.6543 152.499 26.4524C152.04 26.2505 151.628 25.9554 151.29 25.5862C150.953 25.2171 150.697 24.7819 150.539 24.3087C150.381 23.8355 150.324 23.3347 150.373 22.8386ZM156 22.8386C156 21.2041 155.26 20.2483 153.961 20.2483C152.657 20.2483 151.923 21.2041 151.923 22.8386C151.923 24.4862 152.657 25.4346 153.961 25.4346C155.26 25.4346 156 24.4796 156 22.8386ZM167.076 26.612H165.519L163.948 21.0586H163.829L162.264 26.612H160.723L158.627 19.0717H160.149L161.511 24.8253H161.623L163.186 19.0717H164.625L166.189 24.8253H166.307L167.662 19.0717H169.163L167.076 26.612ZM170.925 19.0718H172.37V20.2696H172.482C172.672 19.8394 172.993 19.4787 173.4 19.2379C173.806 18.997 174.279 18.8881 174.751 18.9261C175.121 18.8986 175.492 18.9539 175.838 19.088C176.183 19.2221 176.494 19.4316 176.746 19.701C176.999 19.9703 177.187 20.2926 177.298 20.6439C177.408 20.9952 177.437 21.3667 177.382 21.7306V26.6118H175.882V22.1044C175.882 20.8927 175.351 20.29 174.241 20.29C173.99 20.2784 173.739 20.3209 173.506 20.4143C173.273 20.5078 173.063 20.6502 172.891 20.8317C172.718 21.0132 172.588 21.2295 172.507 21.4658C172.427 21.7021 172.399 21.9528 172.426 22.2008V26.612H170.925V19.0718ZM179.773 16.1282H181.273V26.612H179.773V16.1282ZM183.359 22.8386C183.311 22.343 183.368 21.843 183.527 21.3706C183.685 20.8982 183.942 20.4639 184.279 20.0955C184.617 19.7271 185.028 19.4327 185.487 19.2313C185.947 19.0298 186.443 18.9258 186.945 18.9258C187.447 18.9258 187.943 19.0298 188.402 19.2313C188.861 19.4327 189.273 19.7271 189.611 20.0955C189.948 20.4639 190.204 20.8982 190.363 21.3706C190.521 21.843 190.579 22.343 190.531 22.8386C190.579 23.3346 190.523 23.8353 190.365 24.3083C190.207 24.7814 189.95 25.2164 189.613 25.5854C189.275 25.9544 188.863 26.2493 188.404 26.4511C187.944 26.6529 187.447 26.7572 186.945 26.7572C186.442 26.7572 185.946 26.6529 185.486 26.4511C185.027 26.2493 184.615 25.9544 184.277 25.5854C183.939 25.2164 183.683 24.7814 183.525 24.3083C183.367 23.8353 183.311 23.3346 183.359 22.8386ZM188.987 22.8386C188.987 21.2041 188.246 20.2483 186.947 20.2483C185.643 20.2483 184.909 21.2041 184.909 22.8386C184.909 24.4862 185.643 25.4346 186.947 25.4346C188.246 25.4346 188.987 24.4796 188.987 22.8386ZM192.11 24.4796C192.11 23.1223 193.129 22.3398 194.938 22.2286L196.997 22.1109V21.46C196.997 20.6636 196.466 20.214 195.441 20.214C194.603 20.214 194.023 20.5189 193.856 21.0521H192.404C192.557 19.7569 193.785 18.9263 195.51 18.9263C197.416 18.9263 198.491 19.8674 198.491 21.46V26.612H197.047V25.5523H196.928C196.687 25.9324 196.349 26.2423 195.948 26.4503C195.546 26.6583 195.097 26.7569 194.644 26.7362C194.325 26.7691 194.003 26.7353 193.698 26.6371C193.392 26.5388 193.111 26.3781 192.873 26.1655C192.634 25.9529 192.443 25.6931 192.311 25.4027C192.18 25.1123 192.111 24.7979 192.11 24.4796ZM196.997 23.8353V23.2048L195.141 23.3226C194.094 23.392 193.619 23.7454 193.619 24.41C193.619 25.0887 194.212 25.4837 195.029 25.4837C195.268 25.5077 195.509 25.4837 195.739 25.4133C195.969 25.3428 196.182 25.2272 196.365 25.0734C196.549 24.9196 196.7 24.7307 196.808 24.518C196.917 24.3053 196.981 24.0732 196.997 23.8353ZM200.463 22.8386C200.463 20.456 201.698 18.9467 203.619 18.9467C204.094 18.925 204.566 19.0379 204.978 19.2721C205.391 19.5064 205.728 19.8524 205.95 20.2696H206.062V16.1281H207.563V26.6118H206.125V25.4204H206.006C205.767 25.8348 205.419 26.1765 204.998 26.4084C204.577 26.6403 204.1 26.7536 203.619 26.736C201.685 26.736 200.463 25.2266 200.463 22.8385V22.8386ZM202.013 22.8386C202.013 24.4378 202.773 25.4003 204.044 25.4003C205.309 25.4003 206.09 24.424 206.09 22.845C206.09 21.2736 205.301 20.2835 204.044 20.2835C202.781 20.2835 202.013 21.2524 202.013 22.8386ZM213.771 22.8386C213.723 22.3431 213.78 21.8432 213.938 21.3708C214.097 20.8985 214.353 20.4642 214.691 20.0959C215.028 19.7275 215.44 19.4332 215.899 19.2318C216.358 19.0304 216.854 18.9263 217.356 18.9263C217.858 18.9263 218.354 19.0304 218.813 19.2318C219.272 19.4332 219.684 19.7275 220.021 20.0959C220.359 20.4642 220.615 20.8985 220.773 21.3708C220.932 21.8432 220.989 22.3431 220.941 22.8386C220.99 23.3347 220.934 23.8355 220.776 24.3087C220.618 24.7819 220.362 25.2171 220.024 25.5862C219.686 25.9554 219.275 26.2505 218.815 26.4524C218.355 26.6543 217.858 26.7586 217.356 26.7586C216.853 26.7586 216.356 26.6543 215.897 26.4524C215.437 26.2505 215.025 25.9554 214.688 25.5862C214.35 25.2171 214.094 24.7819 213.936 24.3087C213.778 23.8355 213.722 23.3347 213.771 22.8386ZM219.398 22.8386C219.398 21.2041 218.658 20.2483 217.358 20.2483C216.054 20.2483 215.321 21.2041 215.321 22.8386C215.321 24.4862 216.054 25.4346 217.358 25.4346C218.658 25.4346 219.398 24.4796 219.398 22.8386ZM222.954 19.0718H224.399V20.2696H224.511C224.701 19.8394 225.022 19.4787 225.429 19.2379C225.835 18.997 226.308 18.8881 226.78 18.9261C227.15 18.8986 227.521 18.9539 227.867 19.088C228.212 19.2221 228.523 19.4316 228.775 19.701C229.028 19.9703 229.216 20.2926 229.326 20.6439C229.437 20.9952 229.466 21.3667 229.411 21.7306V26.6118H227.911V22.1044C227.911 20.8927 227.38 20.29 226.27 20.29C226.019 20.2784 225.768 20.3209 225.535 20.4143C225.302 20.5078 225.092 20.6502 224.92 20.8317C224.747 21.0132 224.617 21.2295 224.536 21.4658C224.456 21.7021 224.428 21.9528 224.455 22.2008V26.612H222.955L222.954 19.0718ZM237.889 17.1945V19.1062H239.537V20.3595H237.889V24.2367C237.889 25.0265 238.218 25.3725 238.964 25.3725C239.156 25.3718 239.347 25.3603 239.536 25.338V26.5776C239.267 26.6254 238.994 26.6509 238.72 26.6537C237.052 26.6537 236.387 26.0714 236.387 24.6178V20.3595H235.18V19.106H236.387V17.1947L237.889 17.1945ZM241.586 16.1282H243.073V20.2835H243.192C243.391 19.8492 243.721 19.4865 244.136 19.2448C244.551 19.0031 245.031 18.8941 245.51 18.9327C245.878 18.9128 246.246 18.9737 246.588 19.1111C246.929 19.2485 247.236 19.459 247.486 19.7275C247.736 19.996 247.923 20.3159 248.034 20.6645C248.145 21.013 248.178 21.3816 248.128 21.7438V26.612H246.626V22.1109C246.626 20.9064 246.061 20.2966 245.001 20.2966C244.743 20.2756 244.483 20.3108 244.241 20.3996C243.998 20.4885 243.778 20.6288 243.595 20.8109C243.413 20.993 243.273 21.2124 243.185 21.4537C243.097 21.6951 243.064 21.9526 243.086 22.2082V26.612H241.586V16.1282ZM256.877 24.5759C256.673 25.2651 256.232 25.8612 255.629 26.26C255.027 26.6588 254.303 26.8349 253.583 26.7575C253.082 26.7706 252.584 26.6754 252.124 26.4787C251.664 26.2819 251.253 25.9881 250.918 25.6178C250.584 25.2475 250.335 24.8095 250.189 24.3343C250.043 23.859 250.002 23.3579 250.071 22.8656C250.004 22.3718 250.045 21.8695 250.191 21.3928C250.337 20.9161 250.585 20.4761 250.917 20.1025C251.249 19.729 251.659 19.4306 252.118 19.2277C252.576 19.0247 253.074 18.9219 253.576 18.9261C255.692 18.9261 256.968 20.3595 256.968 22.7273V23.2465H251.599V23.3299C251.576 23.6066 251.611 23.8851 251.702 24.1476C251.794 24.4101 251.939 24.6507 252.13 24.8541C252.321 25.0575 252.552 25.2191 252.809 25.3286C253.066 25.4381 253.344 25.4931 253.624 25.49C253.983 25.5328 254.347 25.4687 254.669 25.3059C254.991 25.1431 255.257 24.889 255.433 24.5759H256.877ZM251.599 22.1461H255.439C255.458 21.893 255.424 21.6388 255.338 21.3998C255.251 21.1608 255.116 20.9424 254.94 20.7584C254.764 20.5745 254.55 20.4291 254.314 20.3317C254.078 20.2343 253.824 20.1869 253.568 20.1927C253.308 20.1895 253.051 20.2378 252.811 20.3348C252.57 20.4319 252.352 20.5756 252.168 20.7577C251.985 20.9397 251.84 21.1564 251.742 21.3948C251.645 21.6332 251.596 21.8887 251.599 22.1461Z" fill="white"/>
  <defs>
    <filter id="filter0_dddddd_12_3575" x="0" y="0.703704" width="362.039" height="248.276" filterUnits="userSpaceOnUse" color-interpolation-filters="sRGB">
      <feFlood flood-opacity="0" result="BackgroundImageFix"/>
      <feColorMatrix in="SourceAlpha" type="matrix" values="0 0 0 0 0 0 0 0 0 0 0 0 0 0 0 0 0 0 127 0" result="hardAlpha"/>
      <feOffset dy="1.85185"/>
      <feGaussianBlur stdDeviation="1.57407"/>
      <feColorMatrix type="matrix" values="0 0 0 0 0.219608 0 0 0 0 0.219608 0 0 0 0 0.219608 0 0 0 0.0240741 0"/>
      <feBlend mode="normal" in2="BackgroundImageFix" result="effect1_dropShadow_12_3575"/>
      <feColorMatrix in="SourceAlpha" type="matrix" values="0 0 0 0 0 0 0 0 0 0 0 0 0 0 0 0 0 0 127 0" result="hardAlpha"/>
      <feOffset dy="8.14815"/>
      <feGaussianBlur stdDeviation="3.25926"/>
      <feColorMatrix type="matrix" values="0 0 0 0 0.219608 0 0 0 0 0.219608 0 0 0 0 0.219608 0 0 0 0.0392593 0"/>
      <feBlend mode="normal" in2="effect1_dropShadow_12_3575" result="effect2_dropShadow_12_3575"/>
      <feColorMatrix in="SourceAlpha" type="matrix" values="0 0 0 0 0 0 0 0 0 0 0 0 0 0 0 0 0 0 127 0" result="hardAlpha"/>
      <feOffset dy="20"/>
      <feGaussianBlur stdDeviation="6.5"/>
      <feColorMatrix type="matrix" values="0 0 0 0 0.219608 0 0 0 0 0.219608 0 0 0 0 0.219608 0 0 0 0.05 0"/>
      <feBlend mode="normal" in2="effect2_dropShadow_12_3575" result="effect3_dropShadow_12_3575"/>
      <feColorMatrix in="SourceAlpha" type="matrix" values="0 0 0 0 0 0 0 0 0 0 0 0 0 0 0 0 0 0 127 0" result="hardAlpha"/>
      <feOffset dy="38.5185"/>
      <feGaussianBlur stdDeviation="12.7407"/>
      <feColorMatrix type="matrix" values="0 0 0 0 0.219608 0 0 0 0 0.219608 0 0 0 0 0.219608 0 0 0 0.0607407 0"/>
      <feBlend mode="normal" in2="effect3_dropShadow_12_3575" result="effect4_dropShadow_12_3575"/>
      <feColorMatrix in="SourceAlpha" type="matrix" values="0 0 0 0 0 0 0 0 0 0 0 0 0 0 0 0 0 0 127 0" result="hardAlpha"/>
      <feOffset dy="64.8148"/>
      <feGaussianBlur stdDeviation="23.4259"/>
      <feColorMatrix type="matrix" values="0 0 0 0 0.219608 0 0 0 0 0.219608 0 0 0 0 0.219608 0 0 0 0.0759259 0"/>
      <feBlend mode="normal" in2="effect4_dropShadow_12_3575" result="effect5_dropShadow_12_3575"/>
      <feColorMatrix in="SourceAlpha" type="matrix" values="0 0 0 0 0 0 0 0 0 0 0 0 0 0 0 0 0 0 127 0" result="hardAlpha"/>
      <feOffset dy="100"/>
      <feGaussianBlur stdDeviation="40"/>
      <feColorMatrix type="matrix" values="0 0 0 0 0.219608 0 0 0 0 0.219608 0 0 0 0 0.219608 0 0 0 0.1 0"/>
      <feBlend mode="normal" in2="effect5_dropShadow_12_3575" result="effect6_dropShadow_12_3575"/>
      <feBlend mode="normal" in="SourceGraphic" in2="effect6_dropShadow_12_3575" result="shape"/>
    </filter>
  </defs>
</svg>