<svg xmlns="http://www.w3.org/2000/svg" width="183" height="24" viewBox="0 0 183 24" fill="none">
  <path fill-rule="evenodd" clip-rule="evenodd" d="M115.919 0C115.919 0 115.888 8.28424 115.949 13.8578C115.949 19.736 120.03 23.9999 134.162 23.9999C149.056 23.9999 151.34 18 151.34 14.7715C151.34 11.5431 151.37 0.0304586 151.37 0.0304586H144.822C144.822 0.0304586 144.853 9.4416 144.853 13.6751C144.853 17.9086 142.264 21.5939 135.046 21.5939C127.035 21.5939 125.36 17.4822 125.36 13.6751C125.36 9.89845 125.421 0.0304586 125.421 0.0304586H115.919V0Z" fill="black"/>
  <path fill-rule="evenodd" clip-rule="evenodd" d="M153.502 0V23.5735H178.446V20.3756L163.492 20.5888V12.3959L178.111 12.6091L178.081 9.53297L163.492 9.71571V2.83248L178.446 3.01522V0H153.502Z" fill="black"/>
  <path fill-rule="evenodd" clip-rule="evenodd" d="M81.7156 3.3807L70.2029 2.98476L70.1725 23.5735H60.3045L60.1522 2.98476L48.335 3.3807L48.3654 0H81.7461L81.7156 3.3807Z" fill="black"/>
  <path fill-rule="evenodd" clip-rule="evenodd" d="M0 0.0302734V23.6038H3.95938C3.95938 23.6038 12.8832 3.38052 28.4771 3.38052C28.4771 3.38052 35.939 2.77138 43.1268 13.3703V0.0302734H0Z" fill="#1AA2DC"/>
  <path fill-rule="evenodd" clip-rule="evenodd" d="M18.6699 23.6043H42.9135C42.9135 23.6043 39.0151 11.452 30.609 11.452C30.609 11.452 23.4212 11.117 18.6699 23.6043Z" fill="#1AA2DC"/>
  <path fill-rule="evenodd" clip-rule="evenodd" d="M179.969 1.52265C179.969 0.791691 180.518 0.273924 181.218 0.273924C181.919 0.273924 182.436 0.822148 182.436 1.52265C182.436 2.25362 181.888 2.80183 181.218 2.80183C180.518 2.77138 179.969 2.25362 179.969 1.52265ZM181.218 3.04549C182.04 3.04549 182.741 2.4059 182.741 1.52265C182.741 0.669864 182.04 0.0302734 181.218 0.0302734C180.396 0.0302734 179.695 0.669864 179.695 1.52265C179.695 2.4059 180.396 3.04549 181.218 3.04549ZM180.914 1.64448H181.218L181.675 2.4059H181.98L181.492 1.64448C181.736 1.61402 181.949 1.46174 181.949 1.15717C181.949 0.822144 181.736 0.669858 181.34 0.669858H180.67V2.4059H180.944V1.64448H180.914ZM180.914 1.40083V0.852601H181.279C181.462 0.852601 181.675 0.883056 181.675 1.12671C181.675 1.40082 181.462 1.40083 181.249 1.40083H180.914Z" fill="black"/>
  <path fill-rule="evenodd" clip-rule="evenodd" d="M104.68 12.5176C104.68 12.5176 104.528 12.3957 104.71 12.3653C109.248 11.6343 113.451 9.98964 113.817 6.51756C114.121 1.85768 108.913 0.213007 102.913 0.0607228C101.573 0.030266 95.8169 0.0302734 93.5022 0.0302734H83.5732V23.6038H93.5022V12.883C93.624 12.883 93.8067 12.883 93.959 12.883C94.2636 12.883 94.3854 13.0353 94.3854 13.0353L106.355 23.6038H119.269L104.68 12.5176ZM93.5326 11.0556V2.07087C93.5326 2.07087 95.7255 2.00996 98.1011 2.13179C101.573 2.43636 103.583 3.50234 103.583 6.36528C103.583 11.7257 93.5326 11.0556 93.5326 11.0556Z" fill="black"/>
</svg>